<svg width="23" height="23" viewBox="0 0 23 23" fill="none" xmlns="http://www.w3.org/2000/svg">
<path fill-rule="evenodd" clip-rule="evenodd" d="M23 11.2131C23 17.4059 17.9797 22.4262 11.7869 22.4262C5.59405 22.4262 0.573771 17.4059 0.573771 11.2131C0.573771 5.02028 5.59405 0 11.7869 0C17.9797 0 23 5.02028 23 11.2131ZM16.0585 17.9243V15.5309C17.5575 14.3901 18.5148 12.6528 18.5148 10.707C18.5148 7.27082 15.5292 4.48525 11.8464 4.48525C8.16336 4.48525 5.17809 7.27082 5.17809 10.707C5.17809 14.143 8.16336 16.9288 11.8464 16.9288C12.5335 16.9288 13.1966 16.8318 13.8205 16.652L16.0585 17.9243Z" fill="white"/>
<path d="M12.5586 9.00293L16.1548 12.8105L12.8819 11.0149L11.1719 12.8105L7.59604 9.00293L10.8326 10.7672L12.5586 9.00293Z" fill="white"/>
</svg>
