<svg width="45" height="48" viewBox="0 0 45 48" fill="none" xmlns="http://www.w3.org/2000/svg">
<g clip-path="url(#clip0_198_82)">
<path d="M36.4313 25.95C36.5063 25.31 36.5626 24.66 36.5626 24C36.5626 23.34 36.5063 22.69 36.4313 22.05L40.3969 18.74C40.7532 18.44 40.8563 17.9 40.6219 17.46L36.8719 10.53C36.6376 10.1 36.1501 9.92 35.7282 10.1L31.0594 12.11C30.0938 11.32 29.0344 10.65 27.8907 10.14L27.1876 4.84C27.1032 4.37 26.7188 4 26.2501 4H18.7501C18.2813 4 17.8969 4.37 17.8219 4.84L17.1188 10.14C15.9751 10.65 14.9157 11.31 13.9501 12.11L9.28132 10.1C8.85945 9.93 8.37195 10.1 8.13757 10.53L4.38757 17.46C4.1532 17.89 4.25632 18.43 4.61257 18.74L8.56882 22.05C8.49382 22.69 8.43757 23.34 8.43757 24C8.43757 24.66 8.49382 25.31 8.56882 25.95L4.61257 29.26C4.25632 29.56 4.1532 30.1 4.38757 30.54L8.13757 37.47C8.37195 37.9 8.85945 38.08 9.28132 37.9L13.9501 35.89C14.9157 36.68 15.9751 37.35 17.1188 37.86L17.8219 43.16C17.8969 43.63 18.2813 44 18.7501 44H26.2501C26.7188 44 27.1032 43.63 27.1782 43.16L27.8813 37.86C29.0251 37.35 30.0844 36.69 31.0501 35.89L35.7188 37.9C36.1407 38.07 36.6282 37.9 36.8626 37.47L40.6126 30.54C40.8469 30.11 40.7438 29.57 40.3876 29.26L36.4313 25.95ZM22.5001 31C18.8719 31 15.9376 27.87 15.9376 24C15.9376 20.13 18.8719 17 22.5001 17C26.1282 17 29.0626 20.13 29.0626 24C29.0626 27.87 26.1282 31 22.5001 31Z" fill="#0029FF"/>
</g>
<defs>
<clipPath id="clip0_198_82">
<rect width="45" height="48" fill="white"/>
</clipPath>
</defs>
</svg>
