<svg width="45" height="48" viewBox="0 0 45 48" fill="none" xmlns="http://www.w3.org/2000/svg">
<g clip-path="url(#clip0_198_91)">
<path d="M33.75 16H31.875V12C31.875 6.48 27.675 2 22.5 2C17.325 2 13.125 6.48 13.125 12V16H11.25C9.17812 16 7.5 17.79 7.5 20V40C7.5 42.21 9.17812 44 11.25 44H33.75C35.8219 44 37.5 42.21 37.5 40V20C37.5 17.79 35.8219 16 33.75 16ZM22.5 34C20.4281 34 18.75 32.21 18.75 30C18.75 27.79 20.4281 26 22.5 26C24.5719 26 26.25 27.79 26.25 30C26.25 32.21 24.5719 34 22.5 34ZM28.3125 16H16.6875V12C16.6875 8.58 19.2937 5.8 22.5 5.8C25.7062 5.8 28.3125 8.58 28.3125 12V16Z" fill="#0029FF"/>
</g>
<defs>
<clipPath id="clip0_198_91">
<rect width="45" height="48" fill="white"/>
</clipPath>
</defs>
</svg>
